<svg width="107" height="44" viewBox="0 0 107 44" fill="none" xmlns="http://www.w3.org/2000/svg">
<path d="M26.159 8.332C26.159 10.202 25.675 11.918 24.707 13.48C23.739 15.042 22.331 16.318 20.483 17.308C18.635 18.298 16.435 18.881 13.883 19.057L12.464 27.01C11.914 30.068 10.418 31.597 7.976 31.597C6.634 31.597 5.391 31.201 4.247 30.409C3.125 29.617 2.223 28.407 1.541 26.779C0.859 25.151 0.518 23.149 0.518 20.773C0.518 16.307 1.233 12.523 2.663 9.421C4.115 6.297 6.051 3.965 8.471 2.425C10.913 0.862999 13.597 0.0819995 16.523 0.0819995C18.591 0.0819995 20.34 0.444999 21.77 1.171C23.222 1.897 24.311 2.887 25.037 4.141C25.785 5.373 26.159 6.77 26.159 8.332ZM14.477 15.658C18.987 15.086 21.242 12.743 21.242 8.629C21.242 7.177 20.758 6 19.79 5.098C18.844 4.174 17.37 3.712 15.368 3.712C13.102 3.712 11.122 4.427 9.428 5.857C7.756 7.287 6.458 9.278 5.534 11.83C4.632 14.36 4.181 17.253 4.181 20.509C4.181 21.873 4.313 23.083 4.577 24.139C4.863 25.195 5.215 26.02 5.633 26.614C6.073 27.186 6.491 27.472 6.887 27.472C7.437 27.472 7.855 26.713 8.141 25.195L9.23 18.958C8.372 18.826 7.998 18.771 8.108 18.793C7.448 18.683 7.019 18.485 6.821 18.199C6.623 17.891 6.524 17.506 6.524 17.044C6.524 16.56 6.656 16.175 6.92 15.889C7.206 15.603 7.591 15.46 8.075 15.46C8.295 15.46 8.46 15.471 8.57 15.493C9.098 15.581 9.505 15.636 9.791 15.658C10.077 13.942 10.484 11.643 11.012 8.761C11.144 8.013 11.441 7.485 11.903 7.177C12.387 6.847 12.948 6.682 13.586 6.682C14.312 6.682 14.829 6.825 15.137 7.111C15.467 7.375 15.632 7.804 15.632 8.398C15.632 8.75 15.61 9.036 15.566 9.256L14.477 15.658ZM42.3251 17.869C42.6111 17.869 42.8311 18.012 42.9851 18.298C43.1391 18.584 43.2161 18.947 43.2161 19.387C43.2161 20.443 42.8971 21.07 42.2591 21.268C40.9391 21.73 39.4871 21.994 37.9031 22.06C37.4851 23.908 36.6601 25.393 35.4281 26.515C34.1961 27.615 32.7991 28.165 31.2371 28.165C29.9171 28.165 28.7841 27.846 27.8381 27.208C26.9141 26.57 26.2101 25.723 25.7261 24.667C25.2421 23.611 25.0001 22.467 25.0001 21.235C25.0001 19.563 25.3191 18.078 25.9571 16.78C26.5951 15.46 27.4751 14.437 28.5971 13.711C29.7191 12.963 30.9621 12.589 32.3261 12.589C33.9981 12.589 35.3401 13.172 36.3521 14.338C37.3861 15.482 37.9911 16.901 38.1671 18.595C39.2011 18.529 40.4331 18.309 41.8631 17.935C42.0391 17.891 42.1931 17.869 42.3251 17.869ZM31.5011 24.667C32.2051 24.667 32.8101 24.381 33.3161 23.809C33.8441 23.237 34.1961 22.412 34.3721 21.334C33.6901 20.872 33.1621 20.267 32.7881 19.519C32.4361 18.771 32.2601 17.979 32.2601 17.143C32.2601 16.791 32.2931 16.439 32.3591 16.087H32.1941C31.3141 16.087 30.5771 16.516 29.9831 17.374C29.4111 18.21 29.1251 19.398 29.1251 20.938C29.1251 22.148 29.3561 23.072 29.8181 23.71C30.3021 24.348 30.8631 24.667 31.5011 24.667ZM42.7268 28.165C41.8908 28.165 41.2968 27.725 40.9448 26.845C40.6148 25.965 40.4498 24.557 40.4498 22.621C40.4498 19.761 40.8568 17.044 41.6708 14.47C41.8688 13.832 42.1878 13.37 42.6278 13.084C43.0898 12.776 43.7278 12.622 44.5418 12.622C44.9818 12.622 45.2898 12.677 45.4658 12.787C45.6418 12.897 45.7298 13.106 45.7298 13.414C45.7298 13.766 45.5648 14.558 45.2348 15.79C45.0148 16.67 44.8388 17.44 44.7068 18.1C44.5748 18.738 44.4648 19.541 44.3768 20.509C44.9708 18.793 45.6748 17.341 46.4888 16.153C47.3248 14.965 48.1718 14.085 49.0298 13.513C49.9098 12.919 50.7348 12.622 51.5048 12.622C52.2748 12.622 52.8138 12.798 53.1218 13.15C53.4518 13.502 53.6168 14.041 53.6168 14.767C53.6168 15.471 53.4078 16.747 52.9898 18.595C52.8138 19.387 52.6928 19.981 52.6268 20.377C53.7268 17.671 54.9478 15.702 56.2898 14.47C57.6318 13.238 58.8858 12.622 60.0518 12.622C61.4818 12.622 62.1968 13.337 62.1968 14.767C62.1968 15.625 61.9548 17.176 61.4708 19.42C61.0528 21.334 60.8438 22.599 60.8438 23.215C60.8438 24.095 61.1628 24.535 61.8008 24.535C62.2408 24.535 62.7578 24.271 63.3518 23.743C63.9678 23.193 64.7818 22.313 65.7938 21.103C66.0578 20.795 66.3548 20.641 66.6848 20.641C66.9708 20.641 67.1908 20.773 67.3448 21.037C67.5208 21.301 67.6088 21.664 67.6088 22.126C67.6088 23.006 67.3998 23.688 66.9818 24.172C66.0358 25.338 65.0128 26.295 63.9128 27.043C62.8348 27.791 61.6028 28.165 60.2168 28.165C59.0948 28.165 58.2478 27.846 57.6758 27.208C57.1038 26.548 56.8178 25.602 56.8178 24.37C56.8178 23.754 56.9718 22.654 57.2798 21.07C57.5658 19.684 57.7088 18.727 57.7088 18.199C57.7088 17.847 57.5878 17.671 57.3458 17.671C57.0598 17.671 56.6528 18.045 56.1248 18.793C55.5968 19.519 55.0688 20.487 54.5408 21.697C54.0128 22.907 53.5838 24.183 53.2538 25.525C53.0118 26.581 52.7258 27.285 52.3958 27.637C52.0878 27.989 51.5818 28.165 50.8778 28.165C50.1518 28.165 49.6018 27.824 49.2278 27.142C48.8758 26.438 48.6998 25.591 48.6998 24.601C48.6998 23.765 48.8098 22.555 49.0298 20.971C49.2058 19.563 49.2938 18.639 49.2938 18.199C49.2938 17.847 49.1728 17.671 48.9308 17.671C48.6008 17.671 48.1828 18.067 47.6768 18.859C47.1708 19.651 46.6758 20.663 46.1918 21.895C45.7298 23.127 45.3558 24.337 45.0698 25.525C44.8278 26.559 44.5418 27.263 44.2118 27.637C43.9038 27.989 43.4088 28.165 42.7268 28.165ZM82.5624 20.641C82.8484 20.641 83.0684 20.773 83.2224 21.037C83.3984 21.301 83.4864 21.664 83.4864 22.126C83.4864 23.006 83.2774 23.688 82.8594 24.172C81.9134 25.338 80.8904 26.295 79.7904 27.043C78.7124 27.791 77.4804 28.165 76.0944 28.165C74.9284 28.165 73.9824 27.747 73.2564 26.911C72.0024 27.725 70.6934 28.143 69.3294 28.165C69.0434 32.411 68.3944 35.953 67.3824 38.791C66.3704 41.651 64.8854 43.081 62.9274 43.081C61.7394 43.081 60.8594 42.652 60.2874 41.794C59.7154 40.936 59.4294 39.748 59.4294 38.23C59.4294 36.074 59.9244 33.555 60.9144 30.673C61.9044 27.813 63.4334 24.656 65.5014 21.202C65.5014 17.99 65.4794 15.757 65.4354 14.503C65.4134 13.865 65.6664 13.359 66.1944 12.985C66.7224 12.611 67.3824 12.424 68.1744 12.424C68.6364 12.424 68.9664 12.523 69.1644 12.721C69.3844 12.897 69.5054 13.26 69.5274 13.81C69.5274 14.36 69.5384 14.767 69.5604 15.031C70.2644 14.151 70.9574 13.524 71.6394 13.15C72.3214 12.754 73.0474 12.556 73.8174 12.556C75.0494 12.556 76.0504 13.051 76.8204 14.041C77.6124 15.031 78.0084 16.329 78.0084 17.935C78.0084 19.101 77.8214 20.234 77.4474 21.334C77.0734 22.434 76.5564 23.435 75.8964 24.337C76.3584 24.469 76.7434 24.535 77.0514 24.535C77.7774 24.535 78.4704 24.271 79.1304 23.743C79.7904 23.215 80.6374 22.335 81.6714 21.103C81.9354 20.795 82.2324 20.641 82.5624 20.641ZM69.4944 24.997C70.2864 24.821 71.0124 24.392 71.6724 23.71C72.3544 23.006 72.8934 22.148 73.2894 21.136C73.6854 20.102 73.8834 19.024 73.8834 17.902C73.8834 17.242 73.7514 16.747 73.4874 16.417C73.2234 16.065 72.8714 15.889 72.4314 15.889C71.6394 15.889 70.6824 16.725 69.5604 18.397C69.5384 19.365 69.5274 20.784 69.5274 22.654C69.5274 23.666 69.5164 24.447 69.4944 24.997ZM63.1914 39.847C63.7854 39.847 64.2804 38.549 64.6764 35.953C65.0724 33.379 65.3254 30.167 65.4354 26.317C64.4894 28.517 63.7414 30.618 63.1914 32.62C62.6414 34.622 62.3664 36.305 62.3664 37.669C62.3664 38.373 62.4544 38.912 62.6304 39.286C62.7844 39.66 62.9714 39.847 63.1914 39.847ZM95.5461 20.641C95.8321 20.641 96.0521 20.773 96.2061 21.037C96.3821 21.301 96.4701 21.664 96.4701 22.126C96.4701 23.006 96.2611 23.688 95.8431 24.172C95.0291 25.162 93.8741 26.075 92.3781 26.911C90.9041 27.747 89.3201 28.165 87.6261 28.165C85.3161 28.165 83.5231 27.538 82.2471 26.284C80.9711 25.03 80.3331 23.314 80.3331 21.136C80.3331 19.618 80.6521 18.21 81.2901 16.912C81.9281 15.592 82.8081 14.547 83.9301 13.777C85.0741 13.007 86.3611 12.622 87.7911 12.622C89.0671 12.622 90.0901 13.007 90.8601 13.777C91.6301 14.525 92.0151 15.548 92.0151 16.846C92.0151 18.364 91.4651 19.673 90.3651 20.773C89.2871 21.851 87.4501 22.709 84.8541 23.347C85.4041 24.359 86.4491 24.865 87.9891 24.865C88.9791 24.865 90.1011 24.524 91.3551 23.842C92.6311 23.138 93.7311 22.225 94.6551 21.103C94.9191 20.795 95.2161 20.641 95.5461 20.641ZM87.2301 15.856C86.4161 15.856 85.7231 16.329 85.1511 17.275C84.6011 18.221 84.3261 19.365 84.3261 20.707V20.773C85.6241 20.465 86.6471 20.003 87.3951 19.387C88.1431 18.771 88.5171 18.056 88.5171 17.242C88.5171 16.824 88.3961 16.494 88.1541 16.252C87.9341 15.988 87.6261 15.856 87.2301 15.856ZM99.3602 28.165C98.0622 28.165 96.9512 27.846 96.0272 27.208C95.1252 26.548 94.4432 25.69 93.9812 24.634C93.5192 23.578 93.2882 22.445 93.2882 21.235C93.2882 19.563 93.5962 18.078 94.2122 16.78C94.8502 15.46 95.7082 14.437 96.7862 13.711C97.8642 12.963 99.0742 12.589 100.416 12.589C101.714 12.589 102.825 12.919 103.749 13.579C104.673 14.217 105.366 15.064 105.828 16.12C106.29 17.176 106.521 18.309 106.521 19.519C106.521 21.191 106.202 22.687 105.564 24.007C104.926 25.305 104.057 26.328 102.957 27.076C101.879 27.802 100.68 28.165 99.3602 28.165ZM99.7232 24.601C100.471 24.601 101.098 24.194 101.604 23.38C102.132 22.566 102.396 21.378 102.396 19.816C102.396 18.606 102.176 17.693 101.736 17.077C101.296 16.461 100.768 16.153 100.152 16.153C99.3602 16.153 98.7002 16.56 98.1722 17.374C97.6662 18.166 97.4132 19.354 97.4132 20.938C97.4132 22.192 97.6332 23.116 98.0732 23.71C98.5132 24.304 99.0632 24.601 99.7232 24.601Z" fill="black"/>
</svg>
